<svg width="83" height="83" viewBox="0 0 83 83" fill="none" xmlns="http://www.w3.org/2000/svg">
<g clip-path="url(#clip0_1_16)">
<path d="M75.0951 0H43.4761V7.90476H75.0951V15.8095H51.381H43.4761V23.7143V31.619V39.5237H51.381H83V31.619H51.381V23.7143H75.0951H83V15.8095V7.90476V0H75.0951Z" fill="#F04A14"/>
<path d="M31.619 0H0V39.5237H39.5237V0H31.619ZM31.619 31.619H7.90476V7.90476H31.619V31.619Z" fill="#F04A14"/>
<path d="M83 51.381V43.4763H51.381H43.4761V51.381V75.0953V83H51.381H83V75.0953H51.381V51.381H83Z" fill="#F04A14"/>
<path d="M31.619 43.4763V51.381H7.90476V43.4763H0V51.381V59.2857H15.8095V67.1904H0V75.0953V83H7.90476V75.0953H31.619V83H39.5237V75.0953V67.1904H23.7143V59.2857H39.5237V51.381V43.4763H31.619Z" fill="#F04A14"/>
</g>
<defs>
<clipPath id="clip0_1_16">
<rect width="83" height="83" rx="5" fill="white"/>
</clipPath>
</defs>
</svg>
